<svg width="45" height="43" viewBox="0 0 45 43" fill="none" xmlns="http://www.w3.org/2000/svg">
<path d="M17.2573 0C14.9688 0 12.7741 1.00674 11.1559 2.79876C9.53774 4.59077 8.62865 7.02127 8.62865 9.55556C8.62865 12.0898 9.53774 14.5203 11.1559 16.3124C12.7741 18.1044 14.9688 19.1111 17.2573 19.1111C19.5458 19.1111 21.7405 18.1044 23.3587 16.3124C24.9769 14.5203 25.8859 12.0898 25.8859 9.55556C25.8859 7.02127 24.9769 4.59077 23.3587 2.79876C21.7405 1.00674 19.5458 0 17.2573 0ZM32.3574 19.1111C32.2256 19.1084 32.0971 19.1572 31.9946 19.2489C31.892 19.3407 31.8219 19.4695 31.7966 19.6128L31.3867 22.7661C30.7396 23.0767 30.114 23.4589 29.5531 23.8889L26.8782 22.6944C26.641 22.6944 26.3605 22.6944 26.2095 23.005L24.0524 27.1378C23.9229 27.4006 23.9661 27.7111 24.1818 27.9022L26.4684 29.8611C26.3823 30.6546 26.3823 31.4566 26.4684 32.25L24.1818 34.2089C24.0849 34.301 24.0192 34.4269 23.9957 34.5659C23.9721 34.7049 23.9921 34.8486 24.0524 34.9733L26.2095 39.1061C26.3389 39.4167 26.6194 39.4167 26.8782 39.4167L29.5531 38.2222C30.114 38.6522 30.718 39.0583 31.3867 39.345L31.7966 42.4983C31.8397 42.785 32.0554 43 32.3574 43H36.6718C36.909 43 37.1463 42.785 37.1895 42.4983L37.5993 39.345C38.2465 39.0344 38.8289 38.6522 39.4114 38.2222L42.0647 39.4167C42.3451 39.4167 42.6255 39.4167 42.7765 39.1061L44.9337 34.9733C44.9939 34.8486 45.0139 34.7049 44.9904 34.5659C44.9669 34.4269 44.9012 34.301 44.8043 34.2089L42.4961 32.25C42.5392 31.8439 42.5824 31.4617 42.5824 31.0556C42.5824 30.6494 42.5608 30.2672 42.4961 29.8611L44.7827 27.9022C44.8796 27.8102 44.9453 27.6842 44.9688 27.5452C44.9924 27.4062 44.9724 27.2625 44.9121 27.1378L42.755 23.005C42.6255 22.6944 42.3451 22.6944 42.0647 22.6944L39.4114 23.8889C38.8289 23.4589 38.2465 23.0528 37.5778 22.7661L37.1679 19.6128C37.1543 19.4767 37.0965 19.3508 37.0052 19.2584C36.9139 19.1661 36.7954 19.1138 36.6718 19.1111H32.3574ZM17.2573 23.8889C7.72264 23.8889 0 28.165 0 33.4444V38.2222H20.8813C19.9186 35.9833 19.4175 33.5353 19.4145 31.0556C19.4188 28.6555 19.8897 26.2845 20.795 24.1039C19.6517 23.9606 18.4653 23.8889 17.2573 23.8889ZM34.5146 27.4722C36.305 27.4722 37.7503 29.0728 37.7503 31.0556C37.7503 33.0383 36.305 34.6389 34.5146 34.6389C32.7026 34.6389 31.2789 33.0383 31.2789 31.0556C31.2789 29.0728 32.7242 27.4722 34.5146 27.4722Z" fill="black"/>
</svg>
